<svg version="1.1" xmlns="http://www.w3.org/2000/svg" xmlns:xlink="http://www.w3.org/1999/xlink" width="905" height="1742"><desc>title%20UkraineWillStandApi%0A%0Aparticipant%20user%0Aparticipant%20server.py%0A%0Aautoactivation%20server.py%0A%0Aactivecolor%20user%20%23coral%0Aactivecolor%20server.py%20%23cyan%0A%0Aactivate%20user%0A%0Agroup%20Load%20home%20page%0A%0Auser-%3Eserver.py%3A%20api.ukrainewillstand.org%0Adeactivate%20user%0Aserver.py-%3Eserver.py%3A%20route('%2F')%3A%20home.html%0Adeactivateafter%20server.py%0Aserver.py-%3Euser%3A%20home.html%0Adeactivate%20server.py%0A%0Auser-%3Eserver.py%3A%20login%20button%0Adeactivate%20user%0Aserver.py-%3Eserver.py%3A%20route('%2Flogin')%3A%20redirect%20auth0%0Adeactivateafter%20server.py%0Aserver.py-%3Eserver.py%3A%20route('%2Fcallback')%3A%20%5Cn%20%20get%20authentication%2C%5Cn%20%20redirect%20to%20%2Fdashboard%0Adeactivateafter%20server.py%0Aserver.py-%3Eserver.py%3A%20route('%2Fdashboard')%3A%20dashboard.html%0Adeactivateafter%20server.py%0Aserver.py--%3Euser%3A%20dashboard.html%0Aactivate%20user%0A%0Auser-%3Eserver.py%3A%20logout%20button%0Adeactivate%20user%0Aserver.py-%3Eserver.py%3A%20route('%2Flogout')%3A%20clear%20session%5Cn%20%20redirect%20home%0Adeactivateafter%20server.py%0Aserver.py-%3Euser%3A%20home.html%0Adeactivate%20server.py%0A%0Aend%20'''group%20home'''%0A%0Agroup%20Offered%20API%0A%0Auser-%3Eserver.py%3A%20%7BGET%7D%20api.ukrainewillstand.org%2Fapi%2Fv1%2Fdocuments%2Ftest%0Adeactivate%20user%0Anote%20right%20of%20server.py%3A%20Check%20Authentication%0Aserver.py-%3Eserver.py%3A%20Generate%20doc%20from%20template%0Adeactivateafter%20server.py%0Aserver.py--%3Euser%3A%20Success%20Message%0Aactivate%20user%0A%0Auser-%3Eserver.py%3A%20%7BPOST%7D%20api.ukrainewillstand.org%2Fapi%2Fv1%2Fdocuments%2Ftest%0Adeactivate%20user%0Anote%20right%20of%20server.py%3A%20Check%20Authentication%0Aserver.py-%3Eserver.py%3A%20Generate%20doc%20from%20template%0Adeactivateafter%20server.py%0Aserver.py--%3Euser%3A%20Success%20Message%0Aactivate%20user%0A%0Auser-%3Eserver.py%3A%20%7BGET%7D%20api.ukrainewillstand.org%2Fapi%2Fv1%2Fdocument%2Fcompleted%2F%3Cfilename%3E%0Adeactivate%20user%0Anote%20right%20of%20server.py%3A%20Check%20Authentication%0Aserver.py-%3Eserver.py%3A%20Fetch%20Document%0Adeactivateafter%20server.py%0Aserver.py--%3Euser%3A%20Document%0Aactivate%20user%0Aend%20'''group%20home'''</desc><defs/><g><g/><g/><g/><g/><g/><g/><g/><g/><g/><g/><g/><g/><g/><g/><g/><g/><g/><g/><g/><g/><g/><g/><g/><g/><g/><g/><g><rect fill="white" stroke="none" x="0" y="0" width="905" height="1742"/></g><g><text fill="black" stroke="none" font-family="sans-serif" font-size="16.5pt" font-style="normal" font-weight="normal" text-decoration="normal" x="352.6757557836914" y="26.3876361" text-anchor="start" dominant-baseline="alphabetic" xml:space="preserve">UkraineWillStandApi</text></g><g/><g><path fill="none" stroke="black" paint-order="fill stroke markers" d=" M 87.958787 103.26361593799999 L 87.958787 1742.8154056179997" stroke-miterlimit="10" stroke-width="1.4659797833333332" stroke-dasharray="13.532121076923076,5.863919133333333"/><path fill="none" stroke="black" paint-order="fill stroke markers" d=" M 607.4618974666666 103.26361593799999 L 607.4618974666666 1742.8154056179997" stroke-miterlimit="10" stroke-width="1.4659797833333332" stroke-dasharray="13.532121076923076,5.863919133333333"/></g><g><path fill="none" stroke="none"/><g><path fill="white" stroke="black" paint-order="fill stroke markers" d=" M 54.371730221 55.765870957999994 L 121.545843779 55.765870957999994 L 121.545843779 103.26361593799999 L 54.371730221 103.26361593799999 L 54.371730221 55.765870957999994 Z" stroke-miterlimit="10" stroke-width="2.814681184" stroke-dasharray=""/></g><g><g/><text fill="black" stroke="none" font-family="sans-serif" font-size="11pt" font-style="normal" font-weight="normal" text-decoration="normal" x="73.458787" y="85.67185853800001" text-anchor="start" dominant-baseline="alphabetic" xml:space="preserve">user</text></g><path fill="none" stroke="none"/><g><path fill="white" stroke="black" paint-order="fill stroke markers" d=" M 558.8748406876666 55.765870957999994 L 656.0489542456667 55.765870957999994 L 656.0489542456667 103.26361593799999 L 558.8748406876666 103.26361593799999 L 558.8748406876666 55.765870957999994 Z" stroke-miterlimit="10" stroke-width="2.814681184" stroke-dasharray=""/></g><g><g/><text fill="black" stroke="none" font-family="sans-serif" font-size="11pt" font-style="normal" font-weight="normal" text-decoration="normal" x="577.9618974666666" y="85.67185853800001" text-anchor="start" dominant-baseline="alphabetic" xml:space="preserve">server.py</text></g></g><g><path fill="coral" stroke="black" paint-order="fill stroke markers" d=" M 79.1629083 112.05949463799999 L 96.7546657 112.05949463799999 L 96.7546657 208.81416033799997 L 79.1629083 208.81416033799997 L 79.1629083 112.05949463799999" stroke-miterlimit="10" stroke-width="1.4659797833333332" stroke-dasharray=""/><path fill="cyan" stroke="black" paint-order="fill stroke markers" d=" M 598.6660187666666 208.81416033799997 L 616.2577761666666 208.81416033799997 L 616.2577761666666 330.19728639799996 L 598.6660187666666 330.19728639799996 L 598.6660187666666 208.81416033799997" stroke-miterlimit="10" stroke-width="1.4659797833333332" stroke-dasharray=""/><path fill="cyan" stroke="black" paint-order="fill stroke markers" d=" M 607.4618974666666 280.940365678 L 625.0536548666666 280.940365678 L 625.0536548666666 293.25459585799996 L 607.4618974666666 293.25459585799996 L 607.4618974666666 280.940365678" stroke-miterlimit="10" stroke-width="1.4659797833333332" stroke-dasharray=""/><path fill="coral" stroke="black" paint-order="fill stroke markers" d=" M 79.1629083 330.19728639799996 L 96.7546657 330.19728639799996 L 96.7546657 379.45420711799994 L 79.1629083 379.45420711799994 L 79.1629083 330.19728639799996" stroke-miterlimit="10" stroke-width="1.4659797833333332" stroke-dasharray=""/><path fill="cyan" stroke="black" paint-order="fill stroke markers" d=" M 598.6660187666666 379.45420711799994 L 616.2577761666666 379.45420711799994 L 616.2577761666666 680.2732586579999 L 598.6660187666666 680.2732586579999 L 598.6660187666666 379.45420711799994" stroke-miterlimit="10" stroke-width="1.4659797833333332" stroke-dasharray=""/><path fill="cyan" stroke="black" paint-order="fill stroke markers" d=" M 607.4618974666666 451.58041245799996 L 625.0536548666666 451.58041245799996 L 625.0536548666666 463.89464263799994 L 607.4618974666666 463.89464263799994 L 607.4618974666666 451.58041245799996" stroke-miterlimit="10" stroke-width="1.4659797833333332" stroke-dasharray=""/><path fill="cyan" stroke="black" paint-order="fill stroke markers" d=" M 607.4618974666666 558.8901325979999 L 625.0536548666666 558.8901325979999 L 625.0536548666666 571.2043627779999 L 607.4618974666666 571.2043627779999 L 607.4618974666666 558.8901325979999" stroke-miterlimit="10" stroke-width="1.4659797833333332" stroke-dasharray=""/><path fill="cyan" stroke="black" paint-order="fill stroke markers" d=" M 607.4618974666666 631.0163379379999 L 625.0536548666666 631.0163379379999 L 625.0536548666666 643.3305681179999 L 607.4618974666666 643.3305681179999 L 607.4618974666666 631.0163379379999" stroke-miterlimit="10" stroke-width="1.4659797833333332" stroke-dasharray=""/><path fill="coral" stroke="black" paint-order="fill stroke markers" d=" M 79.1629083 680.2732586579999 L 96.7546657 680.2732586579999 L 96.7546657 729.530179378 L 79.1629083 729.530179378 L 79.1629083 680.2732586579999" stroke-miterlimit="10" stroke-width="1.4659797833333332" stroke-dasharray=""/><path fill="cyan" stroke="black" paint-order="fill stroke markers" d=" M 598.6660187666666 729.530179378 L 616.2577761666666 729.530179378 L 616.2577761666666 868.505062838 L 598.6660187666666 868.505062838 L 598.6660187666666 729.530179378" stroke-miterlimit="10" stroke-width="1.4659797833333332" stroke-dasharray=""/><path fill="cyan" stroke="black" paint-order="fill stroke markers" d=" M 607.4618974666666 819.2481421179999 L 625.0536548666666 819.2481421179999 L 625.0536548666666 831.5623722979999 L 607.4618974666666 831.5623722979999 L 607.4618974666666 819.2481421179999" stroke-miterlimit="10" stroke-width="1.4659797833333332" stroke-dasharray=""/><path fill="coral" stroke="black" paint-order="fill stroke markers" d=" M 79.1629083 868.505062838 L 96.7546657 868.505062838 L 96.7546657 991.647364638 L 79.1629083 991.647364638 L 79.1629083 868.505062838" stroke-miterlimit="10" stroke-width="1.4659797833333332" stroke-dasharray=""/><path fill="cyan" stroke="black" paint-order="fill stroke markers" d=" M 598.6660187666666 991.647364638 L 616.2577761666666 991.647364638 L 616.2577761666666 1179.879168818 L 598.6660187666666 1179.879168818 L 598.6660187666666 991.647364638" stroke-miterlimit="10" stroke-width="1.4659797833333332" stroke-dasharray=""/><path fill="cyan" stroke="black" paint-order="fill stroke markers" d=" M 607.4618974666666 1130.622248098 L 625.0536548666666 1130.622248098 L 625.0536548666666 1142.936478278 L 607.4618974666666 1142.936478278 L 607.4618974666666 1130.622248098" stroke-miterlimit="10" stroke-width="1.4659797833333332" stroke-dasharray=""/><path fill="coral" stroke="black" paint-order="fill stroke markers" d=" M 79.1629083 1179.879168818 L 96.7546657 1179.879168818 L 96.7546657 1229.1360895379999 L 79.1629083 1229.1360895379999 L 79.1629083 1179.879168818" stroke-miterlimit="10" stroke-width="1.4659797833333332" stroke-dasharray=""/><path fill="cyan" stroke="black" paint-order="fill stroke markers" d=" M 598.6660187666666 1229.1360895379999 L 616.2577761666666 1229.1360895379999 L 616.2577761666666 1417.3678937179998 L 598.6660187666666 1417.3678937179998 L 598.6660187666666 1229.1360895379999" stroke-miterlimit="10" stroke-width="1.4659797833333332" stroke-dasharray=""/><path fill="cyan" stroke="black" paint-order="fill stroke markers" d=" M 607.4618974666666 1368.1109729979999 L 625.0536548666666 1368.1109729979999 L 625.0536548666666 1380.425203178 L 607.4618974666666 1380.425203178 L 607.4618974666666 1368.1109729979999" stroke-miterlimit="10" stroke-width="1.4659797833333332" stroke-dasharray=""/><path fill="coral" stroke="black" paint-order="fill stroke markers" d=" M 79.1629083 1417.3678937179998 L 96.7546657 1417.3678937179998 L 96.7546657 1466.6248144379997 L 79.1629083 1466.6248144379997 L 79.1629083 1417.3678937179998" stroke-miterlimit="10" stroke-width="1.4659797833333332" stroke-dasharray=""/><path fill="cyan" stroke="black" paint-order="fill stroke markers" d=" M 598.6660187666666 1466.6248144379997 L 616.2577761666666 1466.6248144379997 L 616.2577761666666 1654.8566186179996 L 598.6660187666666 1654.8566186179996 L 598.6660187666666 1466.6248144379997" stroke-miterlimit="10" stroke-width="1.4659797833333332" stroke-dasharray=""/><path fill="cyan" stroke="black" paint-order="fill stroke markers" d=" M 607.4618974666666 1605.5996978979997 L 625.0536548666666 1605.5996978979997 L 625.0536548666666 1617.9139280779998 L 607.4618974666666 1617.9139280779998 L 607.4618974666666 1605.5996978979997" stroke-miterlimit="10" stroke-width="1.4659797833333332" stroke-dasharray=""/><path fill="coral" stroke="black" paint-order="fill stroke markers" d=" M 79.1629083 1654.8566186179996 L 96.7546657 1654.8566186179996 L 96.7546657 1725.2236482179997 L 79.1629083 1725.2236482179997 L 79.1629083 1654.8566186179996" stroke-miterlimit="10" stroke-width="1.4659797833333332" stroke-dasharray=""/><g><g><rect fill="white" stroke="none" x="269.5715786233333" y="185.94487571799996" width="156.27752722" height="22.86928462"/></g><text fill="black" stroke="none" font-family="sans-serif" font-size="11pt" font-style="normal" font-weight="normal" text-decoration="normal" x="272.21034223333334" y="201.77745737799998" text-anchor="start" dominant-baseline="alphabetic" xml:space="preserve">api.ukrainewillstand.org</text></g><g><path fill="none" stroke="black" paint-order="fill stroke markers" d=" M 96.7546657 208.81416033799997 L 584.1821385073333 208.81416033799997" stroke-miterlimit="10" stroke-width="1.4659797833333332" stroke-dasharray=""/><g transform="translate(598.6660187666666,208.81416033799997) translate(-598.6660187666666,-208.81416033799997)"><path fill="black" stroke="none" paint-order="stroke fill markers" d=" M 584.0062209333333 201.4842614213333 L 598.6660187666666 208.81416033799997 L 584.0062209333333 216.14405925466664 Z"/></g></g><g><g><rect fill="white" stroke="none" x="645.87056779" y="235.20179643799997" width="135.27752722" height="22.86928462"/></g><text fill="black" stroke="none" font-family="sans-serif" font-size="11pt" font-style="normal" font-weight="normal" text-decoration="normal" x="648.5093314" y="251.034378098" text-anchor="start" dominant-baseline="alphabetic" xml:space="preserve">route('/'): home.html</text></g><g><path fill="none" stroke="black" paint-order="fill stroke markers" d=" M 616.2577761666666 258.071081058 L 695.4206844666667 258.071081058 L 695.4206844666667 280.940365678 L 639.537535126 280.940365678" stroke-miterlimit="10" stroke-width="1.4659797833333332" stroke-dasharray=""/><g transform="translate(625.0536548666666,280.940365678) translate(-625.0536548666666,-280.940365678)"><path fill="black" stroke="none" paint-order="stroke fill markers" d=" M 639.7134527 273.6104667613333 L 625.0536548666666 280.940365678 L 639.7134527 288.2702645946666 Z"/></g></g><g><g><rect fill="white" stroke="none" x="310.5715786233333" y="307.328001778" width="74.27752722" height="22.86928462"/></g><text fill="black" stroke="none" font-family="sans-serif" font-size="11pt" font-style="normal" font-weight="normal" text-decoration="normal" x="313.21034223333334" y="323.160583438" text-anchor="start" dominant-baseline="alphabetic" xml:space="preserve">home.html</text></g><g><path fill="none" stroke="black" paint-order="fill stroke markers" d=" M 598.6660187666666 330.19728639799996 L 111.23854595933334 330.19728639799996" stroke-miterlimit="10" stroke-width="1.4659797833333332" stroke-dasharray=""/><g transform="translate(96.7546657,330.19728639799996) translate(-96.7546657,-330.19728639799996)"><path fill="black" stroke="none" paint-order="stroke fill markers" d=" M 111.41446353333333 322.8673874813333 L 96.7546657 330.19728639799996 L 111.41446353333333 337.5271853146666 Z"/></g></g><g><g><rect fill="white" stroke="none" x="308.0715786233333" y="356.58492249799997" width="79.27752722" height="22.86928462"/></g><text fill="black" stroke="none" font-family="sans-serif" font-size="11pt" font-style="normal" font-weight="normal" text-decoration="normal" x="310.71034223333334" y="372.417504158" text-anchor="start" dominant-baseline="alphabetic" xml:space="preserve">login button</text></g><g><path fill="none" stroke="black" paint-order="fill stroke markers" d=" M 96.7546657 379.45420711799994 L 584.1821385073333 379.45420711799994" stroke-miterlimit="10" stroke-width="1.4659797833333332" stroke-dasharray=""/><g transform="translate(598.6660187666666,379.45420711799994) translate(-598.6660187666666,-379.45420711799994)"><path fill="black" stroke="none" paint-order="stroke fill markers" d=" M 584.0062209333333 372.1243082013333 L 598.6660187666666 379.45420711799994 L 584.0062209333333 386.7841060346666 Z"/></g></g><g><g><rect fill="white" stroke="none" x="645.87056779" y="405.84184321799995" width="185.27752722" height="22.86928462"/></g><text fill="black" stroke="none" font-family="sans-serif" font-size="11pt" font-style="normal" font-weight="normal" text-decoration="normal" x="648.5093314" y="421.67442487799997" text-anchor="start" dominant-baseline="alphabetic" xml:space="preserve">route('/login'): redirect auth0</text></g><g><path fill="none" stroke="black" paint-order="fill stroke markers" d=" M 616.2577761666666 428.711127838 L 695.4206844666667 428.711127838 L 695.4206844666667 451.58041245799996 L 639.537535126 451.58041245799996" stroke-miterlimit="10" stroke-width="1.4659797833333332" stroke-dasharray=""/><g transform="translate(625.0536548666666,451.58041245799996) translate(-625.0536548666666,-451.58041245799996)"><path fill="black" stroke="none" paint-order="stroke fill markers" d=" M 639.7134527 444.2505135413333 L 625.0536548666666 451.58041245799996 L 639.7134527 458.9103113746666 Z"/></g></g><g><g><rect fill="white" stroke="none" x="645.87056779" y="477.9680485579999" width="119.27752722" height="22.86928462"/></g><g><rect fill="white" stroke="none" x="645.87056779" y="495.5598059579999" width="131.27752722" height="22.86928462"/></g><g><rect fill="white" stroke="none" x="645.87056779" y="513.1515633579999" width="155.27752722" height="22.86928462"/></g><text fill="black" stroke="none" font-family="sans-serif" font-size="11pt" font-style="normal" font-weight="normal" text-decoration="normal" x="648.5093314" y="493.8006302179999" text-anchor="start" dominant-baseline="alphabetic" xml:space="preserve">route('/callback'): </text><text fill="black" stroke="none" font-family="sans-serif" font-size="11pt" font-style="normal" font-weight="normal" text-decoration="normal" x="648.5093314" y="511.39238761799993" text-anchor="start" dominant-baseline="alphabetic" xml:space="preserve">  get authentication,</text><text fill="black" stroke="none" font-family="sans-serif" font-size="11pt" font-style="normal" font-weight="normal" text-decoration="normal" x="648.5093314" y="528.9841450179999" text-anchor="start" dominant-baseline="alphabetic" xml:space="preserve">  redirect to /dashboard</text></g><g><path fill="none" stroke="black" paint-order="fill stroke markers" d=" M 616.2577761666666 536.0208479779999 L 695.4206844666667 536.0208479779999 L 695.4206844666667 558.8901325979999 L 639.537535126 558.8901325979999" stroke-miterlimit="10" stroke-width="1.4659797833333332" stroke-dasharray=""/><g transform="translate(625.0536548666666,558.8901325979999) translate(-625.0536548666666,-558.8901325979999)"><path fill="black" stroke="none" paint-order="stroke fill markers" d=" M 639.7134527 551.5602336813332 L 625.0536548666666 558.8901325979999 L 639.7134527 566.2200315146666 Z"/></g></g><g><g><rect fill="white" stroke="none" x="645.87056779" y="585.2777686979999" width="236.27752722" height="22.86928462"/></g><text fill="black" stroke="none" font-family="sans-serif" font-size="11pt" font-style="normal" font-weight="normal" text-decoration="normal" x="648.5093314" y="601.1103503579999" text-anchor="start" dominant-baseline="alphabetic" xml:space="preserve">route('/dashboard'): dashboard.html</text></g><g><path fill="none" stroke="black" paint-order="fill stroke markers" d=" M 616.2577761666666 608.1470533179998 L 695.4206844666667 608.1470533179998 L 695.4206844666667 631.0163379379999 L 639.537535126 631.0163379379999" stroke-miterlimit="10" stroke-width="1.4659797833333332" stroke-dasharray=""/><g transform="translate(625.0536548666666,631.0163379379999) translate(-625.0536548666666,-631.0163379379999)"><path fill="black" stroke="none" paint-order="stroke fill markers" d=" M 639.7134527 623.6864390213332 L 625.0536548666666 631.0163379379999 L 639.7134527 638.3462368546666 Z"/></g></g><g><g><rect fill="white" stroke="none" x="294.5715786233333" y="657.4039740379999" width="106.27752722" height="22.86928462"/></g><text fill="black" stroke="none" font-family="sans-serif" font-size="11pt" font-style="normal" font-weight="normal" text-decoration="normal" x="297.21034223333334" y="673.2365556979998" text-anchor="start" dominant-baseline="alphabetic" xml:space="preserve">dashboard.html</text></g><g><path fill="none" stroke="black" paint-order="fill stroke markers" d=" M 598.6660187666666 680.2732586579999 L 111.23854595933334 680.2732586579999" stroke-miterlimit="10" stroke-width="1.4659797833333332" stroke-dasharray="7.0367029599999995"/><g transform="translate(96.7546657,680.2732586579999) translate(-96.7546657,-680.2732586579999)"><path fill="black" stroke="none" paint-order="stroke fill markers" d=" M 111.41446353333333 672.9433597413332 L 96.7546657 680.2732586579999 L 111.41446353333333 687.6031575746666 Z"/></g></g><g><g><rect fill="white" stroke="none" x="303.5715786233333" y="706.6608947579999" width="88.27752722" height="22.86928462"/></g><text fill="black" stroke="none" font-family="sans-serif" font-size="11pt" font-style="normal" font-weight="normal" text-decoration="normal" x="306.21034223333334" y="722.4934764179999" text-anchor="start" dominant-baseline="alphabetic" xml:space="preserve">logout button</text></g><g><path fill="none" stroke="black" paint-order="fill stroke markers" d=" M 96.7546657 729.530179378 L 584.1821385073333 729.530179378" stroke-miterlimit="10" stroke-width="1.4659797833333332" stroke-dasharray=""/><g transform="translate(598.6660187666666,729.530179378) translate(-598.6660187666666,-729.530179378)"><path fill="black" stroke="none" paint-order="stroke fill markers" d=" M 584.0062209333333 722.2002804613333 L 598.6660187666666 729.530179378 L 584.0062209333333 736.8600782946667 Z"/></g></g><g><g><rect fill="white" stroke="none" x="645.87056779" y="755.917815478" width="192.27752722" height="22.86928462"/></g><g><rect fill="white" stroke="none" x="645.87056779" y="773.509572878" width="103.27752722" height="22.86928462"/></g><text fill="black" stroke="none" font-family="sans-serif" font-size="11pt" font-style="normal" font-weight="normal" text-decoration="normal" x="648.5093314" y="771.7503971379999" text-anchor="start" dominant-baseline="alphabetic" xml:space="preserve">route('/logout'): clear session</text><text fill="black" stroke="none" font-family="sans-serif" font-size="11pt" font-style="normal" font-weight="normal" text-decoration="normal" x="648.5093314" y="789.3421545379999" text-anchor="start" dominant-baseline="alphabetic" xml:space="preserve">  redirect home</text></g><g><path fill="none" stroke="black" paint-order="fill stroke markers" d=" M 616.2577761666666 796.3788574979999 L 695.4206844666667 796.3788574979999 L 695.4206844666667 819.2481421179999 L 639.537535126 819.2481421179999" stroke-miterlimit="10" stroke-width="1.4659797833333332" stroke-dasharray=""/><g transform="translate(625.0536548666666,819.2481421179999) translate(-625.0536548666666,-819.2481421179999)"><path fill="black" stroke="none" paint-order="stroke fill markers" d=" M 639.7134527 811.9182432013332 L 625.0536548666666 819.2481421179999 L 639.7134527 826.5780410346666 Z"/></g></g><g><g><rect fill="white" stroke="none" x="310.5715786233333" y="845.6357782179999" width="74.27752722" height="22.86928462"/></g><text fill="black" stroke="none" font-family="sans-serif" font-size="11pt" font-style="normal" font-weight="normal" text-decoration="normal" x="313.21034223333334" y="861.4683598779999" text-anchor="start" dominant-baseline="alphabetic" xml:space="preserve">home.html</text></g><g><path fill="none" stroke="black" paint-order="fill stroke markers" d=" M 598.6660187666666 868.505062838 L 111.23854595933334 868.505062838" stroke-miterlimit="10" stroke-width="1.4659797833333332" stroke-dasharray=""/><g transform="translate(96.7546657,868.505062838) translate(-96.7546657,-868.505062838)"><path fill="black" stroke="none" paint-order="stroke fill markers" d=" M 111.41446353333333 861.1751639213333 L 96.7546657 868.505062838 L 111.41446353333333 875.8349617546667 Z"/></g></g><g><g><rect fill="white" stroke="none" x="174.07157862333332" y="968.778080018" width="347.27752722" height="22.86928462"/></g><text fill="black" stroke="none" font-family="sans-serif" font-size="11pt" font-style="normal" font-weight="normal" text-decoration="normal" x="176.71034223333334" y="984.6106616779999" text-anchor="start" dominant-baseline="alphabetic" xml:space="preserve">{GET} api.ukrainewillstand.org/api/v1/documents/test</text></g><g><path fill="none" stroke="black" paint-order="fill stroke markers" d=" M 96.7546657 991.647364638 L 584.1821385073333 991.647364638" stroke-miterlimit="10" stroke-width="1.4659797833333332" stroke-dasharray=""/><g transform="translate(598.6660187666666,991.647364638) translate(-598.6660187666666,-991.647364638)"><path fill="black" stroke="none" paint-order="stroke fill markers" d=" M 584.0062209333333 984.3174657213333 L 598.6660187666666 991.647364638 L 584.0062209333333 998.9772635546667 Z"/></g></g><path fill="white" stroke="black" paint-order="fill stroke markers" d=" M 616.2577761666666 1038.2655217479999 L 625.0536548666666 1038.2655217479999 M 625.0536548666666 1018.0350007379999 L 795.4779939266667 1018.0350007379999 L 811.3105755866667 1033.867582398 L 811.3105755866667 1058.496042758 L 625.0536548666666 1058.496042758 L 625.0536548666666 1018.0350007379999 M 795.4779939266667 1018.0350007379999 L 795.4779939266667 1033.867582398 L 811.3105755866667 1033.867582398" stroke-miterlimit="10" stroke-width="1.4659797833333332" stroke-dasharray=""/><g><text fill="black" stroke="none" font-family="sans-serif" font-size="11pt" font-style="normal" font-weight="normal" text-decoration="normal" x="649.6821152266666" y="1042.6634610979997" text-anchor="start" dominant-baseline="alphabetic" xml:space="preserve">Check Authentication</text></g><g><g><rect fill="white" stroke="none" x="645.87056779" y="1084.883678858" width="187.27752722" height="22.86928462"/></g><text fill="black" stroke="none" font-family="sans-serif" font-size="11pt" font-style="normal" font-weight="normal" text-decoration="normal" x="648.5093314" y="1100.716260518" text-anchor="start" dominant-baseline="alphabetic" xml:space="preserve">Generate doc from template</text></g><g><path fill="none" stroke="black" paint-order="fill stroke markers" d=" M 616.2577761666666 1107.752963478 L 695.4206844666667 1107.752963478 L 695.4206844666667 1130.622248098 L 639.537535126 1130.622248098" stroke-miterlimit="10" stroke-width="1.4659797833333332" stroke-dasharray=""/><g transform="translate(625.0536548666666,1130.622248098) translate(-625.0536548666666,-1130.622248098)"><path fill="black" stroke="none" paint-order="stroke fill markers" d=" M 639.7134527 1123.2923491813333 L 625.0536548666666 1130.622248098 L 639.7134527 1137.9521470146667 Z"/></g></g><g><g><rect fill="white" stroke="none" x="284.5715786233333" y="1157.009884198" width="126.27752722" height="22.86928462"/></g><text fill="black" stroke="none" font-family="sans-serif" font-size="11pt" font-style="normal" font-weight="normal" text-decoration="normal" x="287.21034223333334" y="1172.842465858" text-anchor="start" dominant-baseline="alphabetic" xml:space="preserve">Success Message</text></g><g><path fill="none" stroke="black" paint-order="fill stroke markers" d=" M 598.6660187666666 1179.879168818 L 111.23854595933334 1179.879168818" stroke-miterlimit="10" stroke-width="1.4659797833333332" stroke-dasharray="7.0367029599999995"/><g transform="translate(96.7546657,1179.879168818) translate(-96.7546657,-1179.879168818)"><path fill="black" stroke="none" paint-order="stroke fill markers" d=" M 111.41446353333333 1172.5492699013332 L 96.7546657 1179.879168818 L 111.41446353333333 1187.2090677346666 Z"/></g></g><g><g><rect fill="white" stroke="none" x="168.57157862333332" y="1206.266804918" width="358.27752722" height="22.86928462"/></g><text fill="black" stroke="none" font-family="sans-serif" font-size="11pt" font-style="normal" font-weight="normal" text-decoration="normal" x="171.21034223333334" y="1222.099386578" text-anchor="start" dominant-baseline="alphabetic" xml:space="preserve">{POST} api.ukrainewillstand.org/api/v1/documents/test</text></g><g><path fill="none" stroke="black" paint-order="fill stroke markers" d=" M 96.7546657 1229.1360895379999 L 584.1821385073333 1229.1360895379999" stroke-miterlimit="10" stroke-width="1.4659797833333332" stroke-dasharray=""/><g transform="translate(598.6660187666666,1229.1360895379999) translate(-598.6660187666666,-1229.1360895379999)"><path fill="black" stroke="none" paint-order="stroke fill markers" d=" M 584.0062209333333 1221.8061906213331 L 598.6660187666666 1229.1360895379999 L 584.0062209333333 1236.4659884546666 Z"/></g></g><path fill="white" stroke="black" paint-order="fill stroke markers" d=" M 616.2577761666666 1275.7542466479997 L 625.0536548666666 1275.7542466479997 M 625.0536548666666 1255.5237256379999 L 795.4779939266667 1255.5237256379999 L 811.3105755866667 1271.3563072979998 L 811.3105755866667 1295.9847676579998 L 625.0536548666666 1295.9847676579998 L 625.0536548666666 1255.5237256379999 M 795.4779939266667 1255.5237256379999 L 795.4779939266667 1271.3563072979998 L 811.3105755866667 1271.3563072979998" stroke-miterlimit="10" stroke-width="1.4659797833333332" stroke-dasharray=""/><g><text fill="black" stroke="none" font-family="sans-serif" font-size="11pt" font-style="normal" font-weight="normal" text-decoration="normal" x="649.6821152266666" y="1280.1521859979996" text-anchor="start" dominant-baseline="alphabetic" xml:space="preserve">Check Authentication</text></g><g><g><rect fill="white" stroke="none" x="645.87056779" y="1322.3724037579998" width="187.27752722" height="22.86928462"/></g><text fill="black" stroke="none" font-family="sans-serif" font-size="11pt" font-style="normal" font-weight="normal" text-decoration="normal" x="648.5093314" y="1338.2049854179998" text-anchor="start" dominant-baseline="alphabetic" xml:space="preserve">Generate doc from template</text></g><g><path fill="none" stroke="black" paint-order="fill stroke markers" d=" M 616.2577761666666 1345.241688378 L 695.4206844666667 1345.241688378 L 695.4206844666667 1368.1109729979999 L 639.537535126 1368.1109729979999" stroke-miterlimit="10" stroke-width="1.4659797833333332" stroke-dasharray=""/><g transform="translate(625.0536548666666,1368.1109729979999) translate(-625.0536548666666,-1368.1109729979999)"><path fill="black" stroke="none" paint-order="stroke fill markers" d=" M 639.7134527 1360.7810740813331 L 625.0536548666666 1368.1109729979999 L 639.7134527 1375.4408719146666 Z"/></g></g><g><g><rect fill="white" stroke="none" x="284.5715786233333" y="1394.4986090979999" width="126.27752722" height="22.86928462"/></g><text fill="black" stroke="none" font-family="sans-serif" font-size="11pt" font-style="normal" font-weight="normal" text-decoration="normal" x="287.21034223333334" y="1410.3311907579998" text-anchor="start" dominant-baseline="alphabetic" xml:space="preserve">Success Message</text></g><g><path fill="none" stroke="black" paint-order="fill stroke markers" d=" M 598.6660187666666 1417.3678937179998 L 111.23854595933334 1417.3678937179998" stroke-miterlimit="10" stroke-width="1.4659797833333332" stroke-dasharray="7.0367029599999995"/><g transform="translate(96.7546657,1417.3678937179998) translate(-96.7546657,-1417.3678937179998)"><path fill="black" stroke="none" paint-order="stroke fill markers" d=" M 111.41446353333333 1410.037994801333 L 96.7546657 1417.3678937179998 L 111.41446353333333 1424.6977926346665 Z"/></g></g><g><g><rect fill="white" stroke="none" x="117.57157862333334" y="1443.7555298179998" width="460.27752722" height="22.86928462"/></g><text fill="black" stroke="none" font-family="sans-serif" font-size="11pt" font-style="normal" font-weight="normal" text-decoration="normal" x="120.21034223333334" y="1459.5881114779997" text-anchor="start" dominant-baseline="alphabetic" xml:space="preserve">{GET} api.ukrainewillstand.org/api/v1/document/completed/&lt;filename&gt;</text></g><g><path fill="none" stroke="black" paint-order="fill stroke markers" d=" M 96.7546657 1466.6248144379997 L 584.1821385073333 1466.6248144379997" stroke-miterlimit="10" stroke-width="1.4659797833333332" stroke-dasharray=""/><g transform="translate(598.6660187666666,1466.6248144379997) translate(-598.6660187666666,-1466.6248144379997)"><path fill="black" stroke="none" paint-order="stroke fill markers" d=" M 584.0062209333333 1459.294915521333 L 598.6660187666666 1466.6248144379997 L 584.0062209333333 1473.9547133546664 Z"/></g></g><path fill="white" stroke="black" paint-order="fill stroke markers" d=" M 616.2577761666666 1513.2429715479996 L 625.0536548666666 1513.2429715479996 M 625.0536548666666 1493.0124505379997 L 795.4779939266667 1493.0124505379997 L 811.3105755866667 1508.8450321979997 L 811.3105755866667 1533.4734925579996 L 625.0536548666666 1533.4734925579996 L 625.0536548666666 1493.0124505379997 M 795.4779939266667 1493.0124505379997 L 795.4779939266667 1508.8450321979997 L 811.3105755866667 1508.8450321979997" stroke-miterlimit="10" stroke-width="1.4659797833333332" stroke-dasharray=""/><g><text fill="black" stroke="none" font-family="sans-serif" font-size="11pt" font-style="normal" font-weight="normal" text-decoration="normal" x="649.6821152266666" y="1517.6409108979994" text-anchor="start" dominant-baseline="alphabetic" xml:space="preserve">Check Authentication</text></g><g><g><rect fill="white" stroke="none" x="645.87056779" y="1559.8611286579996" width="114.27752722" height="22.86928462"/></g><text fill="black" stroke="none" font-family="sans-serif" font-size="11pt" font-style="normal" font-weight="normal" text-decoration="normal" x="648.5093314" y="1575.6937103179996" text-anchor="start" dominant-baseline="alphabetic" xml:space="preserve">Fetch Document</text></g><g><path fill="none" stroke="black" paint-order="fill stroke markers" d=" M 616.2577761666666 1582.7304132779998 L 695.4206844666667 1582.7304132779998 L 695.4206844666667 1605.5996978979997 L 639.537535126 1605.5996978979997" stroke-miterlimit="10" stroke-width="1.4659797833333332" stroke-dasharray=""/><g transform="translate(625.0536548666666,1605.5996978979997) translate(-625.0536548666666,-1605.5996978979997)"><path fill="black" stroke="none" paint-order="stroke fill markers" d=" M 639.7134527 1598.269798981333 L 625.0536548666666 1605.5996978979997 L 639.7134527 1612.9295968146664 Z"/></g></g><g><g><rect fill="white" stroke="none" x="311.0715786233333" y="1631.9873339979997" width="73.27752722" height="22.86928462"/></g><text fill="black" stroke="none" font-family="sans-serif" font-size="11pt" font-style="normal" font-weight="normal" text-decoration="normal" x="313.71034223333334" y="1647.8199156579997" text-anchor="start" dominant-baseline="alphabetic" xml:space="preserve">Document</text></g><g><path fill="none" stroke="black" paint-order="fill stroke markers" d=" M 598.6660187666666 1654.8566186179996 L 111.23854595933334 1654.8566186179996" stroke-miterlimit="10" stroke-width="1.4659797833333332" stroke-dasharray="7.0367029599999995"/><g transform="translate(96.7546657,1654.8566186179996) translate(-96.7546657,-1654.8566186179996)"><path fill="black" stroke="none" paint-order="stroke fill markers" d=" M 111.41446353333333 1647.526719701333 L 96.7546657 1654.8566186179996 L 111.41446353333333 1662.1865175346663 Z"/></g></g><g><g/><path fill="none" stroke="black" paint-order="fill stroke markers" d=" M 17.59175740000001 138.447130738 L 888.3052101 138.447130738 L 888.3052101 894.892698938 L 17.59175740000001 894.892698938 L 17.59175740000001 138.447130738 Z" stroke-miterlimit="10" stroke-width="2.5131082" stroke-dasharray=""/><path fill="white" stroke="black" paint-order="fill stroke markers" d=" M 17.59175740000001 138.447130738 L 17.59175740000001 159.55723961799998 L 146.77527220000002 159.55723961799998 L 157.33032664 149.002185178 L 157.33032664 138.447130738 L 17.59175740000001 138.447130738" stroke-miterlimit="10" stroke-width="2.5131082" stroke-dasharray=""/><text fill="black" stroke="none" font-family="sans-serif" font-size="8.8pt" font-style="normal" font-weight="bold" text-decoration="normal" x="35.18351480000001" y="152.52053665799997" text-anchor="start" dominant-baseline="alphabetic" xml:space="preserve">Load home page</text></g><g><g/><path fill="none" stroke="black" paint-order="fill stroke markers" d=" M 17.59175740000001 921.280335038 L 839.3052101 921.280335038 L 839.3052101 1681.2442547179996 L 17.59175740000001 1681.2442547179996 L 17.59175740000001 921.280335038 Z" stroke-miterlimit="10" stroke-width="2.5131082" stroke-dasharray=""/><path fill="white" stroke="black" paint-order="fill stroke markers" d=" M 17.59175740000001 921.280335038 L 17.59175740000001 942.390443918 L 117.7752722 942.390443918 L 128.33032664 931.835389478 L 128.33032664 921.280335038 L 17.59175740000001 921.280335038" stroke-miterlimit="10" stroke-width="2.5131082" stroke-dasharray=""/><text fill="black" stroke="none" font-family="sans-serif" font-size="8.8pt" font-style="normal" font-weight="bold" text-decoration="normal" x="35.18351480000001" y="935.353740958" text-anchor="start" dominant-baseline="alphabetic" xml:space="preserve">Offered API</text></g></g><g/><g/></g></svg>